<svg id="Layer_1" data-name="Layer 1" xmlns="http://www.w3.org/2000/svg" viewBox="0 0 100 100"><defs><style>.cls-1{fill:none;stroke:#000;stroke-linecap:round;stroke-miterlimit:10;stroke-width:5px;}</style></defs><title>flashlight_on</title><g id="Flashlight_-_On" data-name="Flashlight - On"><path d="M40,28H60a2,2,0,0,1,2,2v2a0,0,0,0,1,0,0H38a0,0,0,0,1,0,0V30A2,2,0,0,1,40,28Z"/><path d="M38,34V44c0,5,6,7,6,14V88a2,2,0,0,0,2,2h8a2,2,0,0,0,2-2V58c0-7,6-9,6-14V34ZM53,65a3,3,0,0,1-6,0V59a3,3,0,0,1,6,0Z"/><circle cx="50" cy="59" r="2"/></g><g id="Light"><line class="cls-1" x1="41.5" y1="21" x2="38.5" y2="12"/><line class="cls-1" x1="50" y1="21" x2="50" y2="10"/><line class="cls-1" x1="58.5" y1="21" x2="61.5" y2="12"/></g></svg>