<svg id="Layer_1" data-name="Layer 1" xmlns="http://www.w3.org/2000/svg" viewBox="0 0 100 100"><defs><style>.cls-1{fill:none;stroke:#000;stroke-linecap:round;stroke-miterlimit:10;stroke-width:4px;}</style></defs><title>screenlight_off</title><g id="Lightbulb"><rect x="45.5" y="65" width="9" height="2" rx="1"/><path d="M47.5,68a2.56,2.56,0,0,0,5,0Z"/><path d="M38.6,42.26A12.16,12.16,0,0,0,38,46c0,9,8,9,8,18h8a11,11,0,0,1,1.17-5.17Z"/><path d="M60.09,52.43A10.82,10.82,0,0,0,62,46,12,12,0,0,0,43.55,35.89Z"/><line class="cls-1" x1="37.75" y1="35.75" x2="62.25" y2="60.25"/></g><g id="Phone"><path d="M42,9H58a0,0,0,0,1,0,0v5a2,2,0,0,1-2,2H44a2,2,0,0,1-2-2V9a0,0,0,0,1,0,0Z"/><g id="Phone-2" data-name="Phone"><path d="M64,13a4,4,0,0,1,4,4V83a4,4,0,0,1-4,4H36a4,4,0,0,1-4-4V17a4,4,0,0,1,4-4H64m0-4H36a8,8,0,0,0-8,8V83a8,8,0,0,0,8,8H64a8,8,0,0,0,8-8V17a8,8,0,0,0-8-8Z"/></g></g></svg>