<svg id="Layer_1" data-name="Layer 1" xmlns="http://www.w3.org/2000/svg" viewBox="0 0 100 100"><defs><style>.cls-1{fill:none;stroke:#000;stroke-linecap:round;stroke-miterlimit:10;stroke-width:4px;}</style></defs><title>screenlight_on</title><g id="Phone"><path d="M42,9H58a0,0,0,0,1,0,0v5a2,2,0,0,1-2,2H44a2,2,0,0,1-2-2V9A0,0,0,0,1,42,9Z"/><g id="Phone-2" data-name="Phone"><path d="M64,13a4,4,0,0,1,4,4V83a4,4,0,0,1-4,4H36a4,4,0,0,1-4-4V17a4,4,0,0,1,4-4H64m0-4H36a8,8,0,0,0-8,8V83a8,8,0,0,0,8,8H64a8,8,0,0,0,8-8V17a8,8,0,0,0-8-8Z"/></g></g><g id="Phone_Light" data-name="Phone Light"><line class="cls-1" x1="50" y1="32" x2="50" y2="26"/><line class="cls-1" x1="41.5" y1="33.5" x2="38.5" y2="28.5"/><line class="cls-1" x1="58.5" y1="33.5" x2="61.5" y2="28.5"/></g><g id="Lightbulb"><path d="M46,66c0-9-8-9-8-18a12,12,0,0,1,24,0c0,9-8,9-8,18"/><rect x="45.5" y="67" width="9" height="2" rx="1"/><path d="M47.5,70a2.56,2.56,0,0,0,5,0Z"/></g></svg>